<svg xmlns="http://www.w3.org/2000/svg" viewBox="0 0 100 100">
  <!-- Mane -->
  <circle cx="50" cy="52" r="34" fill="#92400e"/>
  <circle cx="50" cy="52" r="34" fill="none" stroke="#5c2a0a" stroke-width="2"/>
  <g fill="#92400e" stroke="#5c2a0a" stroke-width="1.5">
    <path d="M50 14 L56 26 L44 26 Z"/>
    <path d="M68 18 L70 31 L58 27 Z"/>
    <path d="M32 18 L30 31 L42 27 Z"/>
    <path d="M83 32 L72 38 L78 26 Z"/>
    <path d="M17 32 L28 38 L22 26 Z"/>
    <path d="M88 52 L75 52 L84 41 Z"/>
    <path d="M12 52 L25 52 L16 41 Z"/>
    <path d="M85 73 L72 65 L82 60 Z"/>
    <path d="M15 73 L28 65 L18 60 Z"/>
    <path d="M71 87 L62 73 L74 73 Z"/>
    <path d="M29 87 L38 73 L26 73 Z"/>
    <path d="M50 90 L44 75 L56 75 Z"/>
  </g>

  <!-- Ears -->
  <circle cx="28" cy="28" r="9" fill="#92400e" stroke="#5c2a0a" stroke-width="1.5"/>
  <circle cx="72" cy="28" r="9" fill="#92400e" stroke="#5c2a0a" stroke-width="1.5"/>
  <circle cx="28" cy="28" r="4.5" fill="#5c2a0a"/>
  <circle cx="72" cy="28" r="4.5" fill="#5c2a0a"/>

  <!-- Face -->
  <circle cx="50" cy="54" r="24" fill="#f4b942"/>

  <!-- Eyebrows (confident/fierce) -->
  <path d="M32 42 Q38 36 46 40" stroke="#5c2a0a" stroke-width="2.5" fill="none" stroke-linecap="round"/>
  <path d="M68 42 Q62 36 54 40" stroke="#5c2a0a" stroke-width="2.5" fill="none" stroke-linecap="round"/>

  <!-- Eyes -->
  <ellipse cx="40" cy="49" rx="3.4" ry="4.2" fill="#1a1a1a"/>
  <ellipse cx="60" cy="49" rx="3.4" ry="4.2" fill="#1a1a1a"/>
  <circle cx="41.2" cy="47.5" r="1" fill="#fff"/>
  <circle cx="61.2" cy="47.5" r="1" fill="#fff"/>

  <!-- Muzzle -->
  <ellipse cx="50" cy="64" rx="13" ry="10" fill="#fde8c2"/>
  <path d="M44 58 Q50 62 56 58 L54 53 L46 53 Z" fill="#5c2a0a"/>
  <path d="M50 62 L50 68" stroke="#5c2a0a" stroke-width="1.8" stroke-linecap="round"/>
  <path d="M50 68 Q44 73 38 70" stroke="#5c2a0a" stroke-width="1.8" fill="none" stroke-linecap="round"/>
  <path d="M50 68 Q56 73 62 70" stroke="#5c2a0a" stroke-width="1.8" fill="none" stroke-linecap="round"/>

  <!-- Whisker dots -->
  <circle cx="36" cy="63" r="1" fill="#b97a3a"/>
  <circle cx="34" cy="68" r="1" fill="#b97a3a"/>
  <circle cx="64" cy="63" r="1" fill="#b97a3a"/>
  <circle cx="66" cy="68" r="1" fill="#b97a3a"/>
</svg>
